{
    "asset" : {
        "generator" : "Khronos glTF Blender I/O v1.6.16",
        "version" : "2.0"
    },
    "scene" : 0,
    "scenes" : [
        {
            "name" : "Scene",
            "nodes" : [
                0
            ]
        }
    ],
    "nodes" : [
        {
            "mesh" : 0,
            "name" : "Cube"
        }
    ],
    "materials" : [
        {
            "doubleSided" : true,
            "name" : "SwordMetal",
            "pbrMetallicRoughness" : {
                "baseColorFactor" : [
                    0.800000011920929,
                    0.800000011920929,
                    0.800000011920929,
                    1
                ],
                "roughnessFactor" : 0.20000000298023224
            }
        },
        {
            "doubleSided" : true,
            "name" : "SwordHandle",
            "pbrMetallicRoughness" : {
                "baseColorFactor" : [
                    0.07431341707706451,
                    0.0003932871331926435,
                    0.8000000715255737,
                    1
                ],
                "metallicFactor" : 0,
                "roughnessFactor" : 0.5
            }
        }
    ],
    "meshes" : [
        {
            "name" : "Cube",
            "primitives" : [
                {
                    "attributes" : {
                        "POSITION" : 0,
                        "NORMAL" : 1,
                        "TEXCOORD_0" : 2
                    },
                    "indices" : 3,
                    "material" : 0
                },
                {
                    "attributes" : {
                        "POSITION" : 4,
                        "NORMAL" : 5,
                        "TEXCOORD_0" : 6
                    },
                    "indices" : 7,
                    "material" : 1
                }
            ]
        }
    ],
    "accessors" : [
        {
            "bufferView" : 0,
            "componentType" : 5126,
            "count" : 43,
            "max" : [
                0.19999998807907104,
                2.1000001430511475,
                0.059999994933605194
            ],
            "min" : [
                -0.19999998807907104,
                -0.29999998211860657,
                -0.059999994933605194
            ],
            "type" : "VEC3"
        },
        {
            "bufferView" : 1,
            "componentType" : 5126,
            "count" : 43,
            "type" : "VEC3"
        },
        {
            "bufferView" : 2,
            "componentType" : 5126,
            "count" : 43,
            "type" : "VEC2"
        },
        {
            "bufferView" : 3,
            "componentType" : 5123,
            "count" : 66,
            "type" : "SCALAR"
        },
        {
            "bufferView" : 4,
            "componentType" : 5126,
            "count" : 162,
            "max" : [
                0.40606600046157837,
                0.25,
                0.059999994933605194
            ],
            "min" : [
                -0.40606600046157837,
                -0.29999998211860657,
                -0.059999994933605194
            ],
            "type" : "VEC3"
        },
        {
            "bufferView" : 5,
            "componentType" : 5126,
            "count" : 162,
            "type" : "VEC3"
        },
        {
            "bufferView" : 6,
            "componentType" : 5126,
            "count" : 162,
            "type" : "VEC2"
        },
        {
            "bufferView" : 7,
            "componentType" : 5123,
            "count" : 222,
            "type" : "SCALAR"
        }
    ],
    "bufferViews" : [
        {
            "buffer" : 0,
            "byteLength" : 516,
            "byteOffset" : 0
        },
        {
            "buffer" : 0,
            "byteLength" : 516,
            "byteOffset" : 516
        },
        {
            "buffer" : 0,
            "byteLength" : 344,
            "byteOffset" : 1032
        },
        {
            "buffer" : 0,
            "byteLength" : 132,
            "byteOffset" : 1376
        },
        {
            "buffer" : 0,
            "byteLength" : 1944,
            "byteOffset" : 1508
        },
        {
            "buffer" : 0,
            "byteLength" : 1944,
            "byteOffset" : 3452
        },
        {
            "buffer" : 0,
            "byteLength" : 1296,
            "byteOffset" : 5396
        },
        {
            "buffer" : 0,
            "byteLength" : 444,
            "byteOffset" : 6692
        }
    ],
    "buffers" : [
        {
            "byteLength" : 7136,
            "uri" : "sword.bin"
        }
    ]
}
