{
    "asset" : {
        "generator" : "Khronos glTF Blender I/O v1.6.16",
        "version" : "2.0"
    },
    "scene" : 0,
    "scenes" : [
        {
            "name" : "Scene",
            "nodes" : [
                0,
                1,
                2,
                3,
                4,
                5,
                6,
                7,
                8,
                9,
                10
            ]
        }
    ],
    "nodes" : [
        {
            "mesh" : 0,
            "name" : "floor.000"
        },
        {
            "mesh" : 1,
            "name" : "wall.000",
            "translation" : [
                0,
                0,
                -8
            ]
        },
        {
            "mesh" : 2,
            "name" : "wall.001",
            "translation" : [
                8,
                0,
                -8
            ]
        },
        {
            "mesh" : 3,
            "name" : "wall.003",
            "translation" : [
                16,
                0,
                -8
            ]
        },
        {
            "mesh" : 4,
            "name" : "floor.006",
            "translation" : [
                32,
                0,
                0
            ]
        },
        {
            "mesh" : 5,
            "name" : "floor.007",
            "translation" : [
                40,
                0,
                0
            ]
        },
        {
            "mesh" : 6,
            "name" : "wall.006",
            "translation" : [
                24,
                0,
                -8
            ]
        },
        {
            "mesh" : 7,
            "name" : "wall.007",
            "translation" : [
                32,
                0,
                -8
            ]
        },
        {
            "mesh" : 8,
            "name" : "floor.001",
            "translation" : [
                8,
                0,
                0
            ]
        },
        {
            "mesh" : 9,
            "name" : "floor.002",
            "translation" : [
                16,
                0,
                0
            ]
        },
        {
            "mesh" : 10,
            "name" : "floor.003",
            "translation" : [
                24,
                0,
                0
            ]
        }
    ],
    "materials" : [
        {
            "doubleSided" : true,
            "name" : "floor0",
            "normalTexture" : {
                "index" : 0
            },
            "pbrMetallicRoughness" : {
                "baseColorTexture" : {
                    "index" : 1
                },
                "metallicFactor" : 0,
                "metallicRoughnessTexture" : {
                    "index" : 2
                }
            }
        },
        {
            "doubleSided" : true,
            "emissiveFactor" : [
                1,
                1,
                1
            ],
            "emissiveTexture" : {
                "index" : 3
            },
            "name" : "wall0",
            "normalTexture" : {
                "index" : 4
            },
            "pbrMetallicRoughness" : {
                "baseColorTexture" : {
                    "index" : 5
                },
                "metallicFactor" : 0,
                "metallicRoughnessTexture" : {
                    "index" : 6
                }
            }
        },
        {
            "doubleSided" : true,
            "emissiveFactor" : [
                1,
                1,
                1
            ],
            "emissiveTexture" : {
                "index" : 7
            },
            "name" : "wall1",
            "normalTexture" : {
                "index" : 8
            },
            "pbrMetallicRoughness" : {
                "baseColorTexture" : {
                    "index" : 9
                },
                "metallicFactor" : 0,
                "metallicRoughnessTexture" : {
                    "index" : 10
                }
            }
        }
    ],
    "meshes" : [
        {
            "name" : "floor.000",
            "primitives" : [
                {
                    "attributes" : {
                        "POSITION" : 0,
                        "NORMAL" : 1,
                        "TEXCOORD_0" : 2
                    },
                    "indices" : 3,
                    "material" : 0
                }
            ]
        },
        {
            "name" : "wall.000",
            "primitives" : [
                {
                    "attributes" : {
                        "POSITION" : 4,
                        "NORMAL" : 5,
                        "TEXCOORD_0" : 6
                    },
                    "indices" : 7,
                    "material" : 1
                }
            ]
        },
        {
            "name" : "wall.001",
            "primitives" : [
                {
                    "attributes" : {
                        "POSITION" : 8,
                        "NORMAL" : 9,
                        "TEXCOORD_0" : 10
                    },
                    "indices" : 7,
                    "material" : 2
                }
            ]
        },
        {
            "name" : "wall.003",
            "primitives" : [
                {
                    "attributes" : {
                        "POSITION" : 11,
                        "NORMAL" : 12,
                        "TEXCOORD_0" : 13
                    },
                    "indices" : 14,
                    "material" : 1
                },
                {
                    "attributes" : {
                        "POSITION" : 15,
                        "NORMAL" : 16,
                        "TEXCOORD_0" : 17
                    },
                    "indices" : 18,
                    "material" : 0
                }
            ]
        },
        {
            "name" : "floor.006",
            "primitives" : [
                {
                    "attributes" : {
                        "POSITION" : 19,
                        "NORMAL" : 20,
                        "TEXCOORD_0" : 21
                    },
                    "indices" : 22,
                    "material" : 0
                }
            ]
        },
        {
            "name" : "floor.007",
            "primitives" : [
                {
                    "attributes" : {
                        "POSITION" : 23,
                        "NORMAL" : 24,
                        "TEXCOORD_0" : 25
                    },
                    "indices" : 3,
                    "material" : 0
                }
            ]
        },
        {
            "name" : "wall.006",
            "primitives" : [
                {
                    "attributes" : {
                        "POSITION" : 26,
                        "NORMAL" : 27,
                        "TEXCOORD_0" : 28
                    },
                    "indices" : 29,
                    "material" : 1
                }
            ]
        },
        {
            "name" : "wall.007",
            "primitives" : [
                {
                    "attributes" : {
                        "POSITION" : 30,
                        "NORMAL" : 31,
                        "TEXCOORD_0" : 32
                    },
                    "indices" : 7,
                    "material" : 1
                }
            ]
        },
        {
            "name" : "floor.001",
            "primitives" : [
                {
                    "attributes" : {
                        "POSITION" : 33,
                        "NORMAL" : 34,
                        "TEXCOORD_0" : 35
                    },
                    "indices" : 3,
                    "material" : 0
                }
            ]
        },
        {
            "name" : "floor.002",
            "primitives" : [
                {
                    "attributes" : {
                        "POSITION" : 36,
                        "NORMAL" : 37,
                        "TEXCOORD_0" : 38
                    },
                    "indices" : 3,
                    "material" : 0
                }
            ]
        },
        {
            "name" : "floor.003",
            "primitives" : [
                {
                    "attributes" : {
                        "POSITION" : 39,
                        "NORMAL" : 40,
                        "TEXCOORD_0" : 41
                    },
                    "indices" : 3,
                    "material" : 0
                }
            ]
        }
    ],
    "textures" : [
        {
            "sampler" : 0,
            "source" : 0
        },
        {
            "sampler" : 0,
            "source" : 1
        },
        {
            "sampler" : 0,
            "source" : 2
        },
        {
            "sampler" : 0,
            "source" : 3
        },
        {
            "sampler" : 0,
            "source" : 4
        },
        {
            "sampler" : 0,
            "source" : 5
        },
        {
            "sampler" : 0,
            "source" : 6
        },
        {
            "sampler" : 0,
            "source" : 7
        },
        {
            "sampler" : 0,
            "source" : 8
        },
        {
            "sampler" : 0,
            "source" : 9
        },
        {
            "sampler" : 0,
            "source" : 10
        }
    ],
    "images" : [
        {
            "mimeType" : "image/png",
            "name" : "floor0norm",
            "uri" : "textures/floor0norm.png"
        },
        {
            "mimeType" : "image/png",
            "name" : "floor0diff",
            "uri" : "textures/floor0diff.png"
        },
        {
            "mimeType" : "image/png",
            "name" : "floor0rough",
            "uri" : "textures/floor0rough.png"
        },
        {
            "mimeType" : "image/png",
            "name" : "wall0emit",
            "uri" : "textures/wall0emit.png"
        },
        {
            "mimeType" : "image/png",
            "name" : "wall0norm",
            "uri" : "textures/wall0norm.png"
        },
        {
            "mimeType" : "image/png",
            "name" : "wall0diff",
            "uri" : "textures/wall0diff.png"
        },
        {
            "mimeType" : "image/png",
            "name" : "wall0rough",
            "uri" : "textures/wall0rough.png"
        },
        {
            "mimeType" : "image/png",
            "name" : "wall1emit",
            "uri" : "textures/wall1emit.png"
        },
        {
            "mimeType" : "image/png",
            "name" : "wall1norm",
            "uri" : "textures/wall1norm.png"
        },
        {
            "mimeType" : "image/png",
            "name" : "wall1diff",
            "uri" : "textures/wall1diff.png"
        },
        {
            "mimeType" : "image/png",
            "name" : "wall1rough",
            "uri" : "textures/wall1rough.png"
        }
    ],
    "accessors" : [
        {
            "bufferView" : 0,
            "componentType" : 5126,
            "count" : 20,
            "max" : [
                4,
                0.5,
                4
            ],
            "min" : [
                -4,
                0,
                -4
            ],
            "type" : "VEC3"
        },
        {
            "bufferView" : 1,
            "componentType" : 5126,
            "count" : 20,
            "type" : "VEC3"
        },
        {
            "bufferView" : 2,
            "componentType" : 5126,
            "count" : 20,
            "type" : "VEC2"
        },
        {
            "bufferView" : 3,
            "componentType" : 5123,
            "count" : 30,
            "type" : "SCALAR"
        },
        {
            "bufferView" : 4,
            "componentType" : 5126,
            "count" : 24,
            "max" : [
                4,
                8,
                4
            ],
            "min" : [
                -4,
                0,
                -4
            ],
            "type" : "VEC3"
        },
        {
            "bufferView" : 5,
            "componentType" : 5126,
            "count" : 24,
            "type" : "VEC3"
        },
        {
            "bufferView" : 6,
            "componentType" : 5126,
            "count" : 24,
            "type" : "VEC2"
        },
        {
            "bufferView" : 7,
            "componentType" : 5123,
            "count" : 36,
            "type" : "SCALAR"
        },
        {
            "bufferView" : 8,
            "componentType" : 5126,
            "count" : 24,
            "max" : [
                4,
                16,
                4
            ],
            "min" : [
                -4,
                0,
                -4
            ],
            "type" : "VEC3"
        },
        {
            "bufferView" : 9,
            "componentType" : 5126,
            "count" : 24,
            "type" : "VEC3"
        },
        {
            "bufferView" : 10,
            "componentType" : 5126,
            "count" : 24,
            "type" : "VEC2"
        },
        {
            "bufferView" : 11,
            "componentType" : 5126,
            "count" : 30,
            "max" : [
                4,
                8,
                4
            ],
            "min" : [
                -4,
                0,
                -4
            ],
            "type" : "VEC3"
        },
        {
            "bufferView" : 12,
            "componentType" : 5126,
            "count" : 30,
            "type" : "VEC3"
        },
        {
            "bufferView" : 13,
            "componentType" : 5126,
            "count" : 30,
            "type" : "VEC2"
        },
        {
            "bufferView" : 14,
            "componentType" : 5123,
            "count" : 54,
            "type" : "SCALAR"
        },
        {
            "bufferView" : 15,
            "componentType" : 5126,
            "count" : 20,
            "max" : [
                4,
                24,
                0
            ],
            "min" : [
                -4,
                8,
                -4
            ],
            "type" : "VEC3"
        },
        {
            "bufferView" : 16,
            "componentType" : 5126,
            "count" : 20,
            "type" : "VEC3"
        },
        {
            "bufferView" : 17,
            "componentType" : 5126,
            "count" : 20,
            "type" : "VEC2"
        },
        {
            "bufferView" : 18,
            "componentType" : 5123,
            "count" : 30,
            "type" : "SCALAR"
        },
        {
            "bufferView" : 19,
            "componentType" : 5126,
            "count" : 172,
            "max" : [
                4,
                4.5,
                4
            ],
            "min" : [
                -4,
                0,
                -4
            ],
            "type" : "VEC3"
        },
        {
            "bufferView" : 20,
            "componentType" : 5126,
            "count" : 172,
            "type" : "VEC3"
        },
        {
            "bufferView" : 21,
            "componentType" : 5126,
            "count" : 172,
            "type" : "VEC2"
        },
        {
            "bufferView" : 22,
            "componentType" : 5123,
            "count" : 330,
            "type" : "SCALAR"
        },
        {
            "bufferView" : 23,
            "componentType" : 5126,
            "count" : 20,
            "max" : [
                4,
                4.5,
                4
            ],
            "min" : [
                -4,
                0,
                -4
            ],
            "type" : "VEC3"
        },
        {
            "bufferView" : 24,
            "componentType" : 5126,
            "count" : 20,
            "type" : "VEC3"
        },
        {
            "bufferView" : 25,
            "componentType" : 5126,
            "count" : 20,
            "type" : "VEC2"
        },
        {
            "bufferView" : 26,
            "componentType" : 5126,
            "count" : 50,
            "max" : [
                4,
                24,
                4
            ],
            "min" : [
                -4,
                0,
                -4
            ],
            "type" : "VEC3"
        },
        {
            "bufferView" : 27,
            "componentType" : 5126,
            "count" : 50,
            "type" : "VEC3"
        },
        {
            "bufferView" : 28,
            "componentType" : 5126,
            "count" : 50,
            "type" : "VEC2"
        },
        {
            "bufferView" : 29,
            "componentType" : 5123,
            "count" : 84,
            "type" : "SCALAR"
        },
        {
            "bufferView" : 30,
            "componentType" : 5126,
            "count" : 24,
            "max" : [
                4,
                4,
                4
            ],
            "min" : [
                -4,
                0,
                -4
            ],
            "type" : "VEC3"
        },
        {
            "bufferView" : 31,
            "componentType" : 5126,
            "count" : 24,
            "type" : "VEC3"
        },
        {
            "bufferView" : 32,
            "componentType" : 5126,
            "count" : 24,
            "type" : "VEC2"
        },
        {
            "bufferView" : 33,
            "componentType" : 5126,
            "count" : 20,
            "max" : [
                4,
                0.5,
                4
            ],
            "min" : [
                -4,
                0,
                -4
            ],
            "type" : "VEC3"
        },
        {
            "bufferView" : 34,
            "componentType" : 5126,
            "count" : 20,
            "type" : "VEC3"
        },
        {
            "bufferView" : 35,
            "componentType" : 5126,
            "count" : 20,
            "type" : "VEC2"
        },
        {
            "bufferView" : 36,
            "componentType" : 5126,
            "count" : 20,
            "max" : [
                4,
                0.5,
                4
            ],
            "min" : [
                -4,
                0,
                -4
            ],
            "type" : "VEC3"
        },
        {
            "bufferView" : 37,
            "componentType" : 5126,
            "count" : 20,
            "type" : "VEC3"
        },
        {
            "bufferView" : 38,
            "componentType" : 5126,
            "count" : 20,
            "type" : "VEC2"
        },
        {
            "bufferView" : 39,
            "componentType" : 5126,
            "count" : 20,
            "max" : [
                4,
                0.5,
                4
            ],
            "min" : [
                -4,
                0,
                -4
            ],
            "type" : "VEC3"
        },
        {
            "bufferView" : 40,
            "componentType" : 5126,
            "count" : 20,
            "type" : "VEC3"
        },
        {
            "bufferView" : 41,
            "componentType" : 5126,
            "count" : 20,
            "type" : "VEC2"
        }
    ],
    "bufferViews" : [
        {
            "buffer" : 0,
            "byteLength" : 240,
            "byteOffset" : 0
        },
        {
            "buffer" : 0,
            "byteLength" : 240,
            "byteOffset" : 240
        },
        {
            "buffer" : 0,
            "byteLength" : 160,
            "byteOffset" : 480
        },
        {
            "buffer" : 0,
            "byteLength" : 60,
            "byteOffset" : 640
        },
        {
            "buffer" : 0,
            "byteLength" : 288,
            "byteOffset" : 700
        },
        {
            "buffer" : 0,
            "byteLength" : 288,
            "byteOffset" : 988
        },
        {
            "buffer" : 0,
            "byteLength" : 192,
            "byteOffset" : 1276
        },
        {
            "buffer" : 0,
            "byteLength" : 72,
            "byteOffset" : 1468
        },
        {
            "buffer" : 0,
            "byteLength" : 288,
            "byteOffset" : 1540
        },
        {
            "buffer" : 0,
            "byteLength" : 288,
            "byteOffset" : 1828
        },
        {
            "buffer" : 0,
            "byteLength" : 192,
            "byteOffset" : 2116
        },
        {
            "buffer" : 0,
            "byteLength" : 360,
            "byteOffset" : 2308
        },
        {
            "buffer" : 0,
            "byteLength" : 360,
            "byteOffset" : 2668
        },
        {
            "buffer" : 0,
            "byteLength" : 240,
            "byteOffset" : 3028
        },
        {
            "buffer" : 0,
            "byteLength" : 108,
            "byteOffset" : 3268
        },
        {
            "buffer" : 0,
            "byteLength" : 240,
            "byteOffset" : 3376
        },
        {
            "buffer" : 0,
            "byteLength" : 240,
            "byteOffset" : 3616
        },
        {
            "buffer" : 0,
            "byteLength" : 160,
            "byteOffset" : 3856
        },
        {
            "buffer" : 0,
            "byteLength" : 60,
            "byteOffset" : 4016
        },
        {
            "buffer" : 0,
            "byteLength" : 2064,
            "byteOffset" : 4076
        },
        {
            "buffer" : 0,
            "byteLength" : 2064,
            "byteOffset" : 6140
        },
        {
            "buffer" : 0,
            "byteLength" : 1376,
            "byteOffset" : 8204
        },
        {
            "buffer" : 0,
            "byteLength" : 660,
            "byteOffset" : 9580
        },
        {
            "buffer" : 0,
            "byteLength" : 240,
            "byteOffset" : 10240
        },
        {
            "buffer" : 0,
            "byteLength" : 240,
            "byteOffset" : 10480
        },
        {
            "buffer" : 0,
            "byteLength" : 160,
            "byteOffset" : 10720
        },
        {
            "buffer" : 0,
            "byteLength" : 600,
            "byteOffset" : 10880
        },
        {
            "buffer" : 0,
            "byteLength" : 600,
            "byteOffset" : 11480
        },
        {
            "buffer" : 0,
            "byteLength" : 400,
            "byteOffset" : 12080
        },
        {
            "buffer" : 0,
            "byteLength" : 168,
            "byteOffset" : 12480
        },
        {
            "buffer" : 0,
            "byteLength" : 288,
            "byteOffset" : 12648
        },
        {
            "buffer" : 0,
            "byteLength" : 288,
            "byteOffset" : 12936
        },
        {
            "buffer" : 0,
            "byteLength" : 192,
            "byteOffset" : 13224
        },
        {
            "buffer" : 0,
            "byteLength" : 240,
            "byteOffset" : 13416
        },
        {
            "buffer" : 0,
            "byteLength" : 240,
            "byteOffset" : 13656
        },
        {
            "buffer" : 0,
            "byteLength" : 160,
            "byteOffset" : 13896
        },
        {
            "buffer" : 0,
            "byteLength" : 240,
            "byteOffset" : 14056
        },
        {
            "buffer" : 0,
            "byteLength" : 240,
            "byteOffset" : 14296
        },
        {
            "buffer" : 0,
            "byteLength" : 160,
            "byteOffset" : 14536
        },
        {
            "buffer" : 0,
            "byteLength" : 240,
            "byteOffset" : 14696
        },
        {
            "buffer" : 0,
            "byteLength" : 240,
            "byteOffset" : 14936
        },
        {
            "buffer" : 0,
            "byteLength" : 160,
            "byteOffset" : 15176
        }
    ],
    "samplers" : [
        {
            "magFilter" : 9729,
            "minFilter" : 9987
        }
    ],
    "buffers" : [
        {
            "byteLength" : 15336,
            "uri" : "environment.bin"
        }
    ]
}
