{
    "asset" : {
        "generator" : "Khronos glTF Blender I/O v1.5.17",
        "version" : "2.0"
    },
    "scene" : 0,
    "scenes" : [
        {
            "name" : "Scene",
            "nodes" : [
                0
            ]
        }
    ],
    "nodes" : [
        {
            "mesh" : 0,
            "name" : "bombRound"
        }
    ],
    "materials" : [
        {
            "alphaMode" : "BLEND",
            "doubleSided" : true,
            "emissiveFactor" : [
                1,
                1,
                1
            ],
            "emissiveTexture" : {
                "index" : 0
            },
            "name" : "bombRound",
            "normalTexture" : {
                "index" : 1
            },
            "pbrMetallicRoughness" : {
                "baseColorTexture" : {
                    "index" : 2
                },
                "metallicRoughnessTexture" : {
                    "index" : 3
                },
                "roughnessFactor" : 0.5
            }
        }
    ],
    "meshes" : [
        {
            "name" : "bombRound",
            "primitives" : [
                {
                    "attributes" : {
                        "POSITION" : 0,
                        "NORMAL" : 1,
                        "TEXCOORD_0" : 2
                    },
                    "indices" : 3,
                    "material" : 0
                }
            ]
        }
    ],
    "textures" : [
        {
            "sampler" : 0,
            "source" : 0
        },
        {
            "sampler" : 0,
            "source" : 1
        },
        {
            "sampler" : 0,
            "source" : 2
        },
        {
            "sampler" : 0,
            "source" : 3
        }
    ],
    "images" : [
        {
            "mimeType" : "image/png",
            "name" : "bombRound.emit",
            "uri" : "textures/bombRound_emit.png"
        },
        {
            "mimeType" : "image/png",
            "name" : "bombRound.norm",
            "uri" : "textures/bombRound_norm.png"
        },
        {
            "mimeType" : "image/png",
            "name" : "bombRound.diff",
            "uri" : "textures/bombRound_diff.png"
        },
        {
            "mimeType" : "image/png",
            "name" : "bombRound.metal",
            "uri" : "textures/bombRound_metal.png"
        }
    ],
    "accessors" : [
        {
            "bufferView" : 0,
            "componentType" : 5126,
            "count" : 155,
            "max" : [
                0.49797970056533813,
                0.6590908765792847,
                0.4979795217514038
            ],
            "min" : [
                -0.49797964096069336,
                -0.4979797899723053,
                -0.49797964096069336
            ],
            "type" : "VEC3"
        },
        {
            "bufferView" : 1,
            "componentType" : 5126,
            "count" : 155,
            "type" : "VEC3"
        },
        {
            "bufferView" : 2,
            "componentType" : 5126,
            "count" : 155,
            "type" : "VEC2"
        },
        {
            "bufferView" : 3,
            "componentType" : 5123,
            "count" : 678,
            "type" : "SCALAR"
        }
    ],
    "bufferViews" : [
        {
            "buffer" : 0,
            "byteLength" : 1860,
            "byteOffset" : 0
        },
        {
            "buffer" : 0,
            "byteLength" : 1860,
            "byteOffset" : 1860
        },
        {
            "buffer" : 0,
            "byteLength" : 1240,
            "byteOffset" : 3720
        },
        {
            "buffer" : 0,
            "byteLength" : 1356,
            "byteOffset" : 4960
        }
    ],
    "samplers" : [
        {
            "magFilter" : 9729,
            "minFilter" : 9987
        }
    ],
    "buffers" : [
        {
            "byteLength" : 6316,
            "uri" : "bombRound.bin"
        }
    ]
}
